<svg width="22" height="22" viewBox="0 0 22 22" fill="none" xmlns="http://www.w3.org/2000/svg">
  <path d="M19.3029 5.84376H16.6536C16.6536 4.43848 16.0953 3.09077 15.1017 2.09709C14.108 1.10341 12.7603 0.545166 11.355 0.545166C9.94972 0.545166 8.602 1.10341 7.60833 2.09709C6.61465 3.09077 6.0564 4.43848 6.0564 5.84376H3.40711C2.70447 5.84376 2.03061 6.12288 1.53377 6.61972C1.03693 7.11656 0.757813 7.79042 0.757812 8.49305L0.757813 17.324C0.759215 18.4947 1.22487 19.617 2.05263 20.4447C2.88039 21.2725 4.00267 21.7381 5.17331 21.7395H17.5367C18.7073 21.7381 19.8296 21.2725 20.6574 20.4447C21.4851 19.617 21.9508 18.4947 21.9522 17.324V8.49305C21.9522 7.79042 21.6731 7.11656 21.1762 6.61972C20.6794 6.12288 20.0055 5.84376 19.3029 5.84376ZM11.355 2.31136C12.2918 2.31136 13.1903 2.68353 13.8528 3.34598C14.5152 4.00843 14.8874 4.90691 14.8874 5.84376H7.8226C7.8226 4.90691 8.19476 4.00843 8.85722 3.34598C9.51967 2.68353 10.4181 2.31136 11.355 2.31136V2.31136ZM20.186 17.324C20.186 18.0267 19.9069 18.7005 19.41 19.1974C18.9132 19.6942 18.2393 19.9733 17.5367 19.9733H5.17331C4.47067 19.9733 3.79681 19.6942 3.29997 19.1974C2.80313 18.7005 2.52401 18.0267 2.52401 17.324V8.49305C2.52401 8.25884 2.61705 8.03422 2.78266 7.86861C2.94828 7.703 3.1729 7.60995 3.40711 7.60995H6.0564V9.37615C6.0564 9.61036 6.14944 9.83498 6.31506 10.0006C6.48067 10.1662 6.70529 10.2593 6.9395 10.2593C7.17372 10.2593 7.39833 10.1662 7.56395 10.0006C7.72956 9.83498 7.8226 9.61036 7.8226 9.37615V7.60995H14.8874V9.37615C14.8874 9.61036 14.9804 9.83498 15.146 10.0006C15.3117 10.1662 15.5363 10.2593 15.7705 10.2593C16.0047 10.2593 16.2293 10.1662 16.3949 10.0006C16.5605 9.83498 16.6536 9.61036 16.6536 9.37615V7.60995H19.3029C19.5371 7.60995 19.7617 7.703 19.9273 7.86861C20.0929 8.03422 20.186 8.25884 20.186 8.49305V17.324Z" fill="#272727"/>
</svg>
