<svg width="190" height="38" viewBox="0 0 190 38" fill="none" xmlns="http://www.w3.org/2000/svg">
<rect y="0.831055" width="30.0254" height="36.207" rx="7.06479" fill="#39DB4A"/>
<path d="M21.0619 7.96484C21.5223 7.96484 21.8626 7.98486 22.0827 8.0249C22.323 8.04491 22.5832 8.13499 22.8634 8.29512C23.1637 8.45526 23.3738 8.72549 23.4939 9.10581C23.614 9.48613 23.6741 9.99656 23.6741 10.6371C23.6741 11.2776 23.614 11.7881 23.4939 12.1684C23.3738 12.5487 23.1637 12.8189 22.8634 12.9791C22.5632 13.1192 22.2929 13.2093 22.0527 13.2493C21.8325 13.2693 21.4822 13.2793 21.0018 13.2793H11.8141V16.3119H17.7291C18.2095 16.3119 18.5598 16.3319 18.78 16.3719C19.0202 16.392 19.2904 16.482 19.5906 16.6422C20.1111 16.9424 20.3713 17.7331 20.3713 19.0142C20.3713 20.4154 19.991 21.2461 19.2303 21.5063C18.9101 21.6064 18.3996 21.6564 17.699 21.6564H11.8141V27.3312C11.8141 27.8116 11.7941 28.1619 11.754 28.3821C11.734 28.6023 11.7209 28.8497 11.4803 29.0903C11.3968 29.1739 10.3934 29.0903 10.0249 29.0903C8.62374 29.0903 7.80305 28.71 7.56284 27.9494C7.44274 27.6291 7.38269 27.1187 7.38269 26.4181V11.4902C7.38269 10.4693 7.57285 9.77873 7.95317 9.41842C8.33349 9.0381 9.0541 8.84794 10.115 8.84794L21.0619 7.96484Z" fill="white"/>
<path d="M51.7918 18.9634C51.7918 21.0394 51.4029 22.8175 50.6252 24.2977C49.8537 25.7716 48.8 26.9006 47.4641 27.6846C46.1344 28.4686 44.626 28.8606 42.9388 28.8606C41.2517 28.8606 39.7401 28.4686 38.4042 27.6846C37.0745 26.8943 36.0208 25.7622 35.2431 24.2883C34.4716 22.8081 34.0859 21.0331 34.0859 18.9634C34.0859 16.8873 34.4716 15.1124 35.2431 13.6384C36.0208 12.1582 37.0745 11.0261 38.4042 10.2421C39.7401 9.45814 41.2517 9.06614 42.9388 9.06614C44.626 9.06614 46.1344 9.45814 47.4641 10.2421C48.8 11.0261 49.8537 12.1582 50.6252 13.6384C51.4029 15.1124 51.7918 16.8873 51.7918 18.9634ZM48.2826 18.9634C48.2826 17.502 48.0536 16.2695 47.5958 15.266C47.1442 14.2562 46.517 13.4942 45.7142 12.9799C44.9114 12.4593 43.9862 12.199 42.9388 12.199C41.8914 12.199 40.9663 12.4593 40.1635 12.9799C39.3606 13.4942 38.7303 14.2562 38.2724 15.266C37.8209 16.2695 37.5951 17.502 37.5951 18.9634C37.5951 20.4247 37.8209 21.6603 38.2724 22.6701C38.7303 23.6736 39.3606 24.4357 40.1635 24.9563C40.9663 25.4706 41.8914 25.7277 42.9388 25.7277C43.9862 25.7277 44.9114 25.4706 45.7142 24.9563C46.517 24.4357 47.1442 23.6736 47.5958 22.6701C48.0536 21.6603 48.2826 20.4247 48.2826 18.9634ZM72.3083 18.9634C72.3083 21.0394 71.9194 22.8175 71.1417 24.2977C70.3702 25.7716 69.3165 26.9006 67.9806 27.6846C66.6509 28.4686 65.1425 28.8606 63.4553 28.8606C61.7682 28.8606 60.2566 28.4686 58.9207 27.6846C57.591 26.8943 56.5373 25.7622 55.7596 24.2883C54.9881 22.8081 54.6024 21.0331 54.6024 18.9634C54.6024 16.8873 54.9881 15.1124 55.7596 13.6384C56.5373 12.1582 57.591 11.0261 58.9207 10.2421C60.2566 9.45814 61.7682 9.06614 63.4553 9.06614C65.1425 9.06614 66.6509 9.45814 67.9806 10.2421C69.3165 11.0261 70.3702 12.1582 71.1417 13.6384C71.9194 15.1124 72.3083 16.8873 72.3083 18.9634ZM68.7991 18.9634C68.7991 17.502 68.5702 16.2695 68.1123 15.266C67.6607 14.2562 67.0335 13.4942 66.2307 12.9799C65.4279 12.4593 64.5028 12.199 63.4553 12.199C62.4079 12.199 61.4828 12.4593 60.68 12.9799C59.8772 13.4942 59.2468 14.2562 58.789 15.266C58.3374 16.2695 58.1116 17.502 58.1116 18.9634C58.1116 20.4247 58.3374 21.6603 58.789 22.6701C59.2468 23.6736 59.8772 24.4357 60.68 24.9563C61.4828 25.4706 62.4079 25.7277 63.4553 25.7277C64.5028 25.7277 65.4279 25.4706 66.2307 24.9563C67.0335 24.4357 67.6607 23.6736 68.1123 22.6701C68.5702 21.6603 68.7991 20.4247 68.7991 18.9634ZM82.1373 28.5972H75.6081V9.32956H82.269C84.182 9.32956 85.8252 9.71529 87.1988 10.4867C88.5787 11.2519 89.6386 12.3527 90.3787 13.789C91.1188 15.2252 91.4889 16.9438 91.4889 18.9445C91.4889 20.9516 91.1157 22.6764 90.3693 24.119C89.6292 25.5615 88.5598 26.6685 87.1612 27.44C85.7688 28.2114 84.0942 28.5972 82.1373 28.5972ZM79.0985 25.5772H81.968C83.3102 25.5772 84.4297 25.3326 85.3266 24.8434C86.2235 24.3479 86.8978 23.6109 87.3493 22.6325C87.8009 21.6478 88.0267 20.4185 88.0267 18.9445C88.0267 17.4706 87.8009 16.2476 87.3493 15.2754C86.8978 14.297 86.2298 13.5663 85.3454 13.0834C84.4674 12.5941 83.376 12.3495 82.0714 12.3495H79.0985V25.5772ZM93.1047 12.2555V9.32956H108.477V12.2555H102.522V28.5972H99.06V12.2555H93.1047ZM109.79 28.5972V14.1465H113.092V16.5549H113.243C113.506 15.7207 113.958 15.0779 114.597 14.6263C115.243 14.1684 115.98 13.9395 116.808 13.9395C116.996 13.9395 117.206 13.9489 117.439 13.9677C117.677 13.9803 117.874 14.0022 118.031 14.0336V17.1664C117.887 17.1163 117.658 17.0724 117.344 17.0347C117.037 16.9908 116.739 16.9689 116.451 16.9689C115.83 16.9689 115.272 17.1037 114.776 17.3734C114.287 17.6368 113.901 18.0037 113.619 18.4741C113.337 18.9445 113.195 19.4871 113.195 20.1017V28.5972H109.79ZM124.193 28.8888C123.278 28.8888 122.453 28.7257 121.719 28.3996C120.992 28.0672 120.415 27.578 119.988 26.9319C119.568 26.2859 119.358 25.4894 119.358 24.5423C119.358 23.727 119.508 23.0527 119.809 22.5196C120.11 21.9865 120.521 21.56 121.042 21.2401C121.562 20.9202 122.149 20.6788 122.801 20.5157C123.46 20.3463 124.14 20.224 124.843 20.1488C125.689 20.061 126.376 19.9826 126.903 19.9136C127.43 19.8383 127.812 19.7254 128.051 19.5749C128.295 19.4181 128.418 19.1766 128.418 18.8505V18.794C128.418 18.0853 128.208 17.5365 127.787 17.1476C127.367 16.7588 126.762 16.5643 125.972 16.5643C125.137 16.5643 124.476 16.7462 123.986 17.11C123.504 17.4738 123.177 17.9034 123.008 18.3989L119.828 17.9473C120.079 17.0692 120.493 16.3354 121.07 15.7458C121.647 15.15 122.353 14.7047 123.187 14.4099C124.021 14.1088 124.943 13.9583 125.953 13.9583C126.649 13.9583 127.342 14.0398 128.032 14.2029C128.722 14.366 129.352 14.6357 129.923 15.012C130.494 15.382 130.952 15.8869 131.297 16.5267C131.648 17.1664 131.823 17.9661 131.823 18.9257V28.5972H128.549V26.6121H128.436C128.23 27.0135 127.938 27.3898 127.562 27.741C127.191 28.086 126.724 28.3651 126.16 28.5784C125.602 28.7853 124.946 28.8888 124.193 28.8888ZM125.078 26.3863C125.761 26.3863 126.354 26.2514 126.856 25.9817C127.358 25.7058 127.743 25.342 128.013 24.8904C128.289 24.4388 128.427 23.9465 128.427 23.4134V21.7105C128.32 21.7983 128.139 21.8798 127.881 21.9551C127.631 22.0304 127.348 22.0962 127.035 22.1527C126.721 22.2091 126.411 22.2593 126.103 22.3032C125.796 22.3471 125.529 22.3847 125.304 22.4161C124.796 22.4851 124.341 22.598 123.939 22.7548C123.538 22.9116 123.221 23.1311 122.989 23.4134C122.757 23.6893 122.641 24.0468 122.641 24.4859C122.641 25.1131 122.87 25.5866 123.328 25.9065C123.786 26.2263 124.369 26.3863 125.078 26.3863ZM141.551 28.8794C140.109 28.8794 138.87 28.5627 137.835 27.9292C136.806 27.2957 136.013 26.4208 135.455 25.3044C134.903 24.1817 134.627 22.8896 134.627 21.4283C134.627 19.9606 134.909 18.6654 135.474 17.5428C136.038 16.4138 136.835 15.5357 137.863 14.9085C138.898 14.275 140.121 13.9583 141.532 13.9583C142.705 13.9583 143.743 14.1747 144.646 14.6075C145.556 15.034 146.28 15.6392 146.82 16.4232C147.359 17.2009 147.666 18.1104 147.742 19.1515H144.487C144.355 18.4553 144.041 17.8752 143.546 17.411C143.057 16.9406 142.401 16.7054 141.579 16.7054C140.883 16.7054 140.272 16.8936 139.745 17.2699C139.218 17.64 138.807 18.1731 138.512 18.8693C138.224 19.5655 138.08 20.3997 138.08 21.3718C138.08 22.3565 138.224 23.2032 138.512 23.912C138.801 24.6144 139.206 25.157 139.726 25.5396C140.253 25.9159 140.871 26.104 141.579 26.104C142.081 26.104 142.53 26.01 142.925 25.8218C143.326 25.6274 143.662 25.3483 143.931 24.9845C144.201 24.6207 144.386 24.1785 144.487 23.658H147.742C147.66 24.6803 147.359 25.5866 146.839 26.3769C146.318 27.1609 145.609 27.7755 144.712 28.2208C143.815 28.6599 142.762 28.8794 141.551 28.8794ZM153.643 24.0625L153.633 19.9512H154.179L159.372 14.1465H163.352L156.964 21.2589H156.258L153.643 24.0625ZM150.538 28.5972V9.32956H153.944V28.5972H150.538ZM159.608 28.5972L154.904 22.021L157.199 19.6219L163.681 28.5972H159.608ZM171.424 28.8794C169.975 28.8794 168.724 28.5784 167.67 27.9762C166.623 27.3679 165.817 26.5086 165.252 25.3984C164.688 24.282 164.406 22.968 164.406 21.4565C164.406 19.97 164.688 18.6654 165.252 17.5428C165.823 16.4138 166.62 15.5357 167.642 14.9085C168.664 14.275 169.865 13.9583 171.245 13.9583C172.136 13.9583 172.976 14.1026 173.767 14.3911C174.563 14.6733 175.266 15.1124 175.874 15.7082C176.489 16.304 176.972 17.0629 177.323 17.9849C177.674 18.9006 177.85 19.992 177.85 21.2589V22.3032H166.005V20.0077H174.585C174.579 19.3554 174.438 18.7752 174.162 18.2672C173.886 17.7529 173.5 17.3483 173.005 17.0535C172.515 16.7588 171.945 16.6114 171.292 16.6114C170.596 16.6114 169.985 16.7807 169.458 17.1194C168.931 17.4518 168.52 17.8909 168.225 18.4365C167.937 18.9759 167.789 19.5686 167.783 20.2146V22.2185C167.783 23.059 167.937 23.7803 168.244 24.3824C168.551 24.9782 168.981 25.4361 169.533 25.7559C170.085 26.0695 170.731 26.2263 171.471 26.2263C171.967 26.2263 172.415 26.1574 172.816 26.0194C173.218 25.8751 173.566 25.665 173.861 25.389C174.155 25.1131 174.378 24.7712 174.529 24.3636L177.709 24.7211C177.508 25.5615 177.125 26.2953 176.561 26.9225C176.003 27.5435 175.288 28.0264 174.416 28.3714C173.544 28.7101 172.547 28.8794 171.424 28.8794ZM180.731 28.5972V14.1465H184.033V16.5549H184.184C184.447 15.7207 184.899 15.0779 185.538 14.6263C186.184 14.1684 186.921 13.9395 187.749 13.9395C187.937 13.9395 188.148 13.9489 188.38 13.9677C188.618 13.9803 188.816 14.0022 188.972 14.0336V17.1664C188.828 17.1163 188.599 17.0724 188.286 17.0347C187.978 16.9908 187.68 16.9689 187.392 16.9689C186.771 16.9689 186.213 17.1037 185.717 17.3734C185.228 17.6368 184.842 18.0037 184.56 18.4741C184.278 18.9445 184.137 19.4871 184.137 20.1017V28.5972H180.731Z" fill="black"/>
</svg>
