<svg width="22" height="23" viewBox="0 0 22 23" fill="none" xmlns="http://www.w3.org/2000/svg">
  <path d="M11.6648 1.77904C11.6648 1.54483 11.7578 1.32021 11.9234 1.1546C12.089 0.988982 12.3136 0.895942 12.5479 0.895942C14.8892 0.898513 17.1339 1.82974 18.7895 3.48532C20.445 5.14089 21.3763 7.38559 21.3788 9.72693C21.3788 9.96114 21.2858 10.1858 21.1202 10.3514C20.9546 10.517 20.7299 10.61 20.4957 10.61C20.2615 10.61 20.0369 10.517 19.8713 10.3514C19.7057 10.1858 19.6126 9.96114 19.6126 9.72693C19.6105 7.85388 18.8655 6.05814 17.5411 4.73369C16.2166 3.40924 14.4209 2.66424 12.5479 2.66214C12.3136 2.66214 12.089 2.5691 11.9234 2.40349C11.7578 2.23787 11.6648 2.01325 11.6648 1.77904V1.77904ZM12.5479 6.19453C13.4847 6.19453 14.3832 6.5667 15.0456 7.22915C15.7081 7.8916 16.0802 8.79008 16.0802 9.72693C16.0802 9.96114 16.1733 10.1858 16.3389 10.3514C16.5045 10.517 16.7291 10.61 16.9633 10.61C17.1976 10.61 17.4222 10.517 17.5878 10.3514C17.7534 10.1858 17.8464 9.96114 17.8464 9.72693C17.845 8.32209 17.2863 6.97518 16.293 5.98181C15.2996 4.98843 13.9527 4.42974 12.5479 4.42834C12.3136 4.42834 12.089 4.52138 11.9234 4.68699C11.7578 4.8526 11.6648 5.07722 11.6648 5.31143C11.6648 5.54565 11.7578 5.77027 11.9234 5.93588C12.089 6.10149 12.3136 6.19453 12.5479 6.19453V6.19453ZM20.5779 15.6781C21.0896 16.1913 21.377 16.8865 21.377 17.6112C21.377 18.336 21.0896 19.0312 20.5779 19.5443L19.7742 20.4707C12.5417 27.3951 -5.05846 9.79934 1.75905 2.5438L2.77461 1.6607C3.28837 1.16324 3.97733 0.888037 4.69244 0.894648C5.40755 0.901258 6.0913 1.18915 6.59577 1.69603C6.62315 1.72341 8.25953 3.84902 8.25953 3.84902C8.74508 4.35913 9.01538 5.03673 9.01423 5.74098C9.01307 6.44522 8.74057 7.12194 8.25335 7.63045L7.23072 8.91624C7.79665 10.2913 8.62872 11.541 9.67912 12.5936C10.7295 13.6461 11.9775 14.4807 13.3515 15.0494L14.6452 14.0206C15.1538 13.5337 15.8304 13.2615 16.5344 13.2605C17.2385 13.2596 17.9158 13.5298 18.4257 14.0153C18.4257 14.0153 20.5505 15.6508 20.5779 15.6781ZM19.3627 16.9622C19.3627 16.9622 17.2495 15.3364 17.2221 15.309C17.0402 15.1286 16.7943 15.0274 16.5381 15.0274C16.2819 15.0274 16.0361 15.1286 15.8542 15.309C15.8303 15.3337 14.0491 16.7529 14.0491 16.7529C13.9291 16.8484 13.7862 16.911 13.6346 16.9346C13.483 16.9581 13.3279 16.9417 13.1846 16.8871C11.4046 16.2244 9.78794 15.1869 8.44395 13.8449C7.09996 12.5029 6.06009 10.8877 5.39476 9.10876C5.33577 8.96345 5.31654 8.80505 5.33904 8.64985C5.36155 8.49464 5.42498 8.34823 5.52281 8.22566C5.52281 8.22566 6.94195 6.44357 6.96579 6.42061C7.14618 6.23868 7.24739 5.99285 7.24739 5.73665C7.24739 5.48045 7.14618 5.23462 6.96579 5.05269C6.93842 5.02619 5.31263 2.91117 5.31263 2.91117C5.12798 2.7456 4.88698 2.65692 4.63905 2.66333C4.39111 2.66973 4.15502 2.77073 3.97916 2.94561L2.96359 3.82871C-2.01884 9.81965 13.2331 24.2256 18.4832 19.2644L19.2877 18.3371C19.4762 18.1625 19.5894 17.9214 19.6034 17.6648C19.6174 17.4082 19.5311 17.1563 19.3627 16.9622V16.9622Z" fill="white"/>
</svg>
